<?xml version="1.0" encoding="UTF-8"?>
<svg version="1.1" xmlns="http://www.w3.org/2000/svg" width="597" height="418">
<path d="M0 0 C3.81582725 2.54095409 6.86874878 5.78008424 9.7890625 9.28515625 C13.35535993 13.39640323 17.16399117 17.22613462 21.02734375 21.0546875 C21.6647197 21.68654465 22.30209564 22.31840179 22.95878601 22.96940613 C25.63346735 25.61633978 28.31181956 28.25949383 30.99438477 30.8984375 C32.9680125 32.84205077 34.93552729 34.7916855 36.90234375 36.7421875 C37.51472397 37.34110809 38.12710419 37.94002869 38.75804138 38.55709839 C40.21029552 40.00055908 41.61078013 41.49577628 43 43 C43 43.66 43 44.32 43 45 C43.556875 45.20625 44.11375 45.4125 44.6875 45.625 C47.24189892 47.14383179 48.68220386 48.96355993 50.5 51.28125 C52.83915691 53.96153396 55.57939266 56.13916505 58.328125 58.38671875 C60 60 60 60 61 63 C61.598125 63.28875 62.19625 63.5775 62.8125 63.875 C65.71795946 65.3692363 67.01848945 67.4180317 69 70 C70.6454378 71.68762851 72.31288577 73.3540349 74 75 C75.66666667 76.66666667 77.33333333 78.33333333 79 80 C79.886875 80.845625 80.77375 81.69125 81.6875 82.5625 C84.28762662 85.30317401 85.88102995 87.32221726 86.15234375 91.1484375 C85.58963442 96.98015239 84.2707977 99.9375339 80 104 C79.34 104 78.68 104 78 104 C77.505 105.485 77.505 105.485 77 107 C76.34 107 75.68 107 75 107 C74.01 108.98 74.01 108.98 73 111 C72.34 111 71.68 111 71 111 C70.505 112.485 70.505 112.485 70 114 C69.34 114 68.68 114 68 114 C67.01 115.98 67.01 115.98 66 118 C65.34 118 64.68 118 64 118 C63.505 119.485 63.505 119.485 63 121 C62.34 121 61.68 121 61 121 C60.5978125 121.8971875 60.5978125 121.8971875 60.1875 122.8125 C59.00082594 124.99847854 57.90400887 126.41332594 56 128 C55.34 128 54.68 128 54 128 C53.731875 128.598125 53.46375 129.19625 53.1875 129.8125 C52.00082594 131.99847854 50.90400887 133.41332594 49 135 C48.34 135 47.68 135 47 135 C46.34 136.32 45.68 137.64 45 139 C37.83037975 139.48607595 37.83037975 139.48607595 34.4375 137.5 C31.85359379 134.84983978 29.43423734 132.10308715 27.03125 129.2890625 C22.53083336 124.21743913 17.62861619 119.48134228 12.69921875 114.828125 C11 113 11 113 11 111 C10.401875 110.731875 9.80375 110.46375 9.1875 110.1875 C7.00152146 109.00082594 5.58667406 107.90400887 4 106 C4 105.34 4 104.68 4 104 C3.01 103.67 2.02 103.34 1 103 C-1.1875 101.0625 -1.1875 101.0625 -3 99 C-3 98.34 -3 97.68 -3 97 C-3.99 96.67 -4.98 96.34 -6 96 C-8.64296752 93.66796984 -9.87224426 92.38326722 -11 89 C-11.09636222 86.29277974 -11.13642644 83.61152936 -11.12939453 80.90429688 C-11.13114685 80.07962418 -11.13289917 79.25495148 -11.13470459 78.4052887 C-11.13910964 75.67642112 -11.13618983 72.94761824 -11.1328125 70.21875 C-11.13348593 68.32450345 -11.13445628 66.43025699 -11.13571167 64.53601074 C-11.13718682 60.56485166 -11.13503994 56.59371506 -11.13037109 52.62255859 C-11.12467392 47.52796387 -11.1279539 42.43342183 -11.13394356 37.33882904 C-11.13755409 33.42697756 -11.13640831 29.5151386 -11.13381577 25.60328674 C-11.13314786 23.72457371 -11.13397017 21.84585954 -11.13629532 19.96714783 C-11.13882987 17.34330221 -11.13496984 14.71954235 -11.12939453 12.09570312 C-11.13141876 11.31638931 -11.13344299 10.5370755 -11.13552856 9.73414612 C-11.12298895 6.55461458 -11.01308977 4.03926932 -10 1 C-6.56935181 -1.54122088 -3.97248854 -1.24627091 0 0 Z " fill="#3B51D6" transform="translate(121,118)"/>
<path d="M0 0 C1.63298035 1.03614807 1.63298035 1.03614807 3 3 C3.29098454 5.79828053 3.39949146 8.37315085 3.37231445 11.17163086 C3.37596512 12.00445084 3.37961578 12.83727081 3.38337708 13.69532776 C3.39149186 16.45203967 3.37786372 19.20816543 3.36328125 21.96484375 C3.3627627 23.87911478 3.36328019 25.79338635 3.36479187 27.70765686 C3.3647021 31.72177062 3.3542642 35.73568373 3.33618164 39.74975586 C3.31350967 44.89588579 3.31294714 50.04172204 3.31969929 55.18788815 C3.32304078 59.14183666 3.31640551 63.0957182 3.30657005 67.04965401 C3.30271972 68.9470745 3.30156915 70.84450245 3.3031559 72.74192619 C3.3035267 75.39442 3.29090176 78.04653734 3.2746582 80.69897461 C3.27713562 81.48404388 3.27961304 82.26911316 3.28216553 83.07797241 C3.24517907 86.86171037 3.12900104 89.79147569 1 93 C0.34 93 -0.32 93 -1 93 C-1.99 94.98 -1.99 94.98 -3 97 C-3.66 97 -4.32 97 -5 97 C-5.495 98.485 -5.495 98.485 -6 100 C-7.9375 102.1875 -7.9375 102.1875 -10 104 C-10.66 104 -11.32 104 -12 104 C-12.4021875 104.8971875 -12.4021875 104.8971875 -12.8125 105.8125 C-13.99917406 107.99847854 -15.09599113 109.41332594 -17 111 C-17.66 111 -18.32 111 -19 111 C-19.495 112.485 -19.495 112.485 -20 114 C-20.66 114 -21.32 114 -22 114 C-22.13341797 114.88751953 -22.13341797 114.88751953 -22.26953125 115.79296875 C-23.1912271 118.57777172 -24.40925105 119.49424036 -26.6875 121.3125 C-29.41457772 123.57941363 -31.77992393 125.79810776 -34 128.5625 C-38.0688743 133.43632775 -42.22844411 137.52214554 -48.625 138.625 C-52.60002236 137.88888475 -54.90122946 136.56971216 -58 134 C-58 133.34 -58 132.68 -58 132 C-59.32 131.34 -60.64 130.68 -62 130 C-62 129.34 -62 128.68 -62 128 C-62.99 127.67 -63.98 127.34 -65 127 C-66.33895632 125.33784732 -67.67130142 123.67036393 -69 122 C-70.45613723 120.80273161 -71.91325817 119.60654257 -73.3828125 118.42578125 C-75.82869508 116.26938719 -77.8402935 113.7925862 -79.921875 111.2890625 C-82.04388111 108.86528462 -82.04388111 108.86528462 -84.890625 106.4609375 C-92.65865516 99.6365589 -92.65865516 99.6365589 -93.703125 94.62890625 C-93.68919274 91.67178464 -93.5030072 88.9113447 -93 86 C-91.515 85.505 -91.515 85.505 -90 85 C-88.79117904 82.99983534 -88.79117904 82.99983534 -88 81 C-87.34 81 -86.68 81 -86 81 C-85.60748047 80.11441406 -85.60748047 80.11441406 -85.20703125 79.2109375 C-83.9360512 76.88286401 -82.60869648 75.43970001 -80.6875 73.625 C-78.46690339 71.47750945 -76.51963516 69.40878174 -74.5625 67 C-71.91491909 63.90039308 -69.07659585 61.42438635 -65.98046875 58.79296875 C-63.54291498 56.5861893 -61.52043693 54.16074931 -59.4375 51.625 C-58.01547544 50.01749398 -56.54871138 48.7139691 -54.875 47.375 C-52.11966973 45.0988576 -50.16906431 42.8197836 -48 40 C-45.875 37.6875 -45.875 37.6875 -44 36 C-43.34 36 -42.68 36 -42 36 C-41.34 34.68 -40.68 33.36 -40 32 C-39.34 32 -38.68 32 -38 32 C-37.79375 31.46375 -37.5875 30.9275 -37.375 30.375 C-35.46749574 27.08021991 -32.95180616 24.40636372 -30 22 C-29.34 22 -28.68 22 -28 22 C-27.62959595 21.14281372 -27.62959595 21.14281372 -27.25170898 20.26831055 C-25.79763272 17.63327591 -24.09701802 15.83800729 -21.97265625 13.70703125 C-21.18052734 12.91232422 -20.38839844 12.11761719 -19.57226562 11.29882812 C-18.74404297 10.47833984 -17.91582031 9.65785156 -17.0625 8.8125 C-15.8259668 7.56436523 -15.8259668 7.56436523 -14.56445312 6.29101562 C-13.77103516 5.50017578 -12.97761719 4.70933594 -12.16015625 3.89453125 C-11.43449463 3.17112549 -10.70883301 2.44771973 -9.96118164 1.70239258 C-6.57296532 -1.23872934 -4.14156569 -1.24246971 0 0 Z " fill="#3B51D6" transform="translate(93,118)"/>
<path d="M0 0 C3.0625 1.375 3.0625 1.375 5 3 C5 3.66 5 4.32 5 5 C6.32 5.66 7.64 6.32 9 7 C9 7.66 9 8.32 9 9 C9.5887793 9.26425781 10.17755859 9.52851563 10.78417969 9.80078125 C13.08072584 11.04368944 14.60833166 12.35006481 16.453125 14.1875 C17.071875 14.80367187 17.690625 15.41984375 18.328125 16.0546875 C18.96234375 16.69664062 19.5965625 17.33859375 20.25 18 C21.22453125 18.96292969 21.22453125 18.96292969 22.21875 19.9453125 C22.83234375 20.56148437 23.4459375 21.17765625 24.078125 21.8125 C24.91972168 22.65748047 24.91972168 22.65748047 25.77832031 23.51953125 C27 25 27 25 27 27 C27.56460938 27.23976563 28.12921875 27.47953125 28.7109375 27.7265625 C31.47889003 29.26641322 33.39425756 31.12933621 35.625 33.375 C36.78902344 34.53128906 36.78902344 34.53128906 37.9765625 35.7109375 C40.65889914 38.74539555 41.87499583 40.8499616 42.3125 44.875 C41.5565825 52.43417502 36.55559015 56.86130353 31.41015625 61.91796875 C30.66922226 62.65702957 29.92828827 63.39609039 29.16490173 64.157547 C27.60245185 65.71329439 26.03641812 67.26544978 24.46704102 68.81420898 C22.06721081 71.18285041 19.67824554 73.56202568 17.29101562 75.94335938 C15.76885068 77.45635471 14.24608441 78.96874535 12.72265625 80.48046875 C12.00900406 81.18987106 11.29535187 81.89927338 10.56007385 82.63017273 C9.88935349 83.29128555 9.21863312 83.95239838 8.52758789 84.63354492 C7.9415126 85.21279221 7.35543732 85.79203949 6.75160217 86.38883972 C2.24729322 90.53199721 -0.40697986 91.59234373 -6.515625 91.4296875 C-10.55373551 90.73127216 -12.27983774 89.00649513 -15 86 C-15 85.34 -15 84.68 -15 84 C-15.66 84 -16.32 84 -17 84 C-17 83.34 -17 82.68 -17 82 C-17.66 82 -18.32 82 -19 82 C-20.2265625 80.71484375 -20.2265625 80.71484375 -21.625 78.9375 C-24.58087652 75.33776919 -27.86242453 72.42531925 -31.4609375 69.48046875 C-31.96882813 68.99191406 -32.47671875 68.50335938 -33 68 C-33 67.34 -33 66.68 -33 66 C-33.59941406 65.73832031 -34.19882813 65.47664063 -34.81640625 65.20703125 C-37.13061764 63.92779812 -38.29659445 62.73749558 -39.9375 60.6875 C-41.80571396 58.407806 -43.63062709 56.38370535 -45.75 54.3125 C-48.74958091 51.22959739 -49.81977421 49.38173104 -50.375 45.125 C-49.89294478 41.1078732 -48.46002396 39.19138244 -46 36 C-44.88625 34.5459375 -44.88625 34.5459375 -43.75 33.0625 C-41.117632 29.95225596 -38.06974297 27.4191272 -34.97265625 24.78515625 C-33.13013126 23.11776235 -31.57446744 21.4176756 -30 19.5 C-27.25228652 16.16081686 -24.17287816 13.42483657 -20.8828125 10.62890625 C-19.29809263 9.25789342 -17.79422421 7.79422421 -16.3125 6.3125 C-15.549375 5.549375 -14.78625 4.78625 -14 4 C-13.2575 3.236875 -12.515 2.47375 -11.75 1.6875 C-7.84037987 -0.71158508 -4.47658738 -0.68808305 0 0 Z " fill="#2EEEFA" transform="translate(107,229)"/>
<path d="M0 0 C3.63 0 7.26 0 11 0 C11 5.61 11 11.22 11 17 C13.94729537 14.36893239 13.94729537 14.36893239 15 12 C15.66 12 16.32 12 17 12 C17.28101563 11.42765625 17.56203125 10.8553125 17.8515625 10.265625 C21.74116875 2.59225213 21.74116875 2.59225213 25 0 C29.0834949 -0.6875272 32.89970652 -0.47770409 37 0 C35.19530635 6.13595842 30.58905502 10.53259381 26.5234375 15.29296875 C25.9459375 15.98261719 25.3684375 16.67226562 24.7734375 17.3828125 C24.24153809 18.00559082 23.70963867 18.62836914 23.16162109 19.27001953 C21.72127252 21.06780465 21.72127252 21.06780465 22 24 C23.31321858 25.6825613 24.64613064 27.34997172 26 29 C26 29.66 26 30.32 26 31 C26.99 31.33 27.98 31.66 29 32 C29.33 32.99 29.66 33.98 30 35 C30.433125 35.433125 30.86625 35.86625 31.3125 36.3125 C33 38 33 38 35.0625 41.125 C36.69145453 44.05064042 36.69145453 44.05064042 39 45 C39.09539062 44.21109375 39.19078125 43.4221875 39.2890625 42.609375 C40.20287667 37.97001075 41.76276099 33.68698834 43.375 29.25 C45.53261755 23.2708395 47.55958451 17.29080304 49.35253906 11.19140625 C50.46524421 7.42532727 51.74035051 3.71896516 53 0 C57.95 0 62.9 0 68 0 C69.27274732 3.7910336 70.54324564 7.58279695 71.8125 11.375 C72.16892578 12.43589844 72.52535156 13.49679688 72.89257812 14.58984375 C74.81799726 20.34843675 76.66733352 26.11147745 78.33227539 31.95117188 C79.01620946 34.23950546 79.01620946 34.23950546 80.625 37.125 C82.39258624 40.82086215 82.64913573 43.92997452 83 48 C79.37 48 75.74 48 72 48 C69 39.25 69 39.25 69 37 C63.39 37 57.78 37 52 37 C51.690625 38.629375 51.38125 40.25875 51.0625 41.9375 C50.125 46.875 50.125 46.875 49 48 C29.80945316 50.49010354 29.80945316 50.49010354 22.6953125 45.83984375 C18 39.86320971 18 39.86320971 18 36 C16.515 35.505 16.515 35.505 15 35 C13.8125 32.4375 13.8125 32.4375 13 30 C12.34 30 11.68 30 11 30 C11 35.94 11 41.88 11 48 C7.37 48 3.74 48 0 48 C0 32.16 0 16.32 0 0 Z M60 13 C59.32779649 14.93558599 58.66241923 16.87354372 58 18.8125 C57.62875 19.89144531 57.2575 20.97039062 56.875 22.08203125 C55.85638488 24.97120802 55.85638488 24.97120802 56 28 C59.3 28 62.6 28 66 28 C64.35 23.05 62.7 18.1 61 13 C60.67 13 60.34 13 60 13 Z " fill="#E6E6E6" transform="translate(446,186)"/>
<path d="M0 0 C4.96622349 -0.02465098 9.93241166 -0.04283649 14.89868164 -0.05493164 C16.58944316 -0.0599719 18.28020029 -0.06680405 19.97094727 -0.07543945 C22.39600707 -0.08751857 24.82100944 -0.09323123 27.24609375 -0.09765625 C28.38672523 -0.10539818 28.38672523 -0.10539818 29.55039978 -0.11329651 C31.3673257 -0.11349238 33.18413127 -0.06197277 35 0 C36.81649754 1.81649754 36.5625 4.17335355 36.5625 6.59765625 C35.38547334 11.62454093 31.32740119 15.21534494 28 19 C27.67 19.66 27.34 20.32 27 21 C26.34 21 25.68 21 25 21 C24.77570313 21.52078125 24.55140625 22.0415625 24.3203125 22.578125 C22.50556274 25.90695593 20.21057756 28.7728295 17.875 31.75 C15.461875 34.84375 15.461875 34.84375 13 38 C20.59 38.33 28.18 38.66 36 39 C36.495 40.98 36.495 40.98 37 43 C39.30361494 36.9896592 41.37299779 30.92904664 43.375 24.8125 C50.86718135 2.13281865 50.86718135 2.13281865 53 0 C55.18639453 -0.07258946 57.37500389 -0.08373783 59.5625 -0.0625 C61.35880859 -0.04896484 61.35880859 -0.04896484 63.19140625 -0.03515625 C64.11824219 -0.02355469 65.04507813 -0.01195312 66 0 C67.95019689 5.16802176 69.88314402 10.34169195 71.75390625 15.5390625 C72.44643151 17.46250256 73.14158797 19.38502134 73.84716797 21.30371094 C74.80359234 23.90739428 75.74612967 26.51584002 76.6875 29.125 C76.99719727 29.95999023 77.30689453 30.79498047 77.62597656 31.65527344 C79.59184792 37.15407788 80.56034713 42.17313396 81 48 C77.37 48 73.74 48 70 48 C69.01 44.37 68.02 40.74 67 37 C61.39 37 55.78 37 50 37 C49.67 39.64 49.34 42.28 49 45 C48.34 45.99 47.68 46.98 47 48 C44.97518921 48.36076355 44.97518921 48.36076355 42.45849609 48.34057617 C41.04725967 48.34023628 41.04725967 48.34023628 39.60751343 48.33988953 C38.58976837 48.32440567 37.57202332 48.30892181 36.5234375 48.29296875 C35.48305328 48.28872391 34.44266907 48.28447906 33.37075806 48.28010559 C30.03857853 48.26327482 26.70699759 48.22561422 23.375 48.1875 C21.11980038 48.17245887 18.86459131 48.15876947 16.609375 48.14648438 C11.07271145 48.11335699 5.53639848 48.0631142 0 48 C-0.04183943 46.22765853 -0.07180251 44.45503374 -0.09667969 42.68237305 C-0.11462585 41.69528854 -0.13257202 40.70820404 -0.15106201 39.69120789 C0.05514147 36.01764087 1.21060063 34.42844155 3.75 31.8125 C4.96236328 30.4821875 4.96236328 30.4821875 6.19921875 29.125 C6.86703369 28.39990234 6.86703369 28.39990234 7.54833984 27.66015625 C10.42334773 24.37222258 12.96748929 20.82228843 15.5625 17.3125 C17.356875 14.899375 19.15125 12.48625 21 10 C14.07 9.67 7.14 9.34 0 9 C0 6.03 0 3.06 0 0 Z M58 14 C57.32739649 15.76858691 56.66211605 17.53996016 56 19.3125 C55.62875 20.29863281 55.2575 21.28476563 54.875 22.30078125 C53.84581498 25.00271656 53.84581498 25.00271656 54 28 C57.3 28 60.6 28 64 28 C62.68 23.38 61.36 18.76 60 14 C59.34 14 58.68 14 58 14 Z " fill="#E4E4E4" transform="translate(359,186)"/>
<path d="M0 0 C4.95 0 9.9 0 15 0 C15.62648438 1.90265625 16.25296875 3.8053125 16.8984375 5.765625 C17.51052379 7.61579492 18.12263188 9.46595771 18.73535156 11.31591797 C19.15929602 12.5977836 19.58216079 13.88000685 20.00390625 15.16259766 C20.61171277 17.01038681 21.22377813 18.85677335 21.8359375 20.703125 C22.20251465 21.81333008 22.5690918 22.92353516 22.94677734 24.06738281 C23.82128866 26.50239206 24.77613031 28.72640809 26 31 C26.4125 29.7625 26.825 28.525 27.25 27.25 C27.52457031 26.42886719 27.79914062 25.60773438 28.08203125 24.76171875 C28.71063978 22.8705433 29.33272152 20.9771894 29.94921875 19.08203125 C32.06746402 12.61008029 34.4070403 6.29718785 37 0 C41.29 0 45.58 0 50 0 C50 15.84 50 31.68 50 48 C46.7 48 43.4 48 40 48 C39.67 40.08 39.34 32.16 39 24 C38.05125 26.51625 37.1025 29.0325 36.125 31.625 C35.82996582 32.40568848 35.53493164 33.18637695 35.23095703 33.99072266 C34.05693836 37.11324767 32.9223582 40.2329254 31.8671875 43.3984375 C31 46 31 46 30 48 C27.03 48 24.06 48 21 48 C16.70563923 40.36558086 14.5094788 32.36492934 12 24 C11.67 31.92 11.34 39.84 11 48 C7.37 48 3.74 48 0 48 C0 32.16 0 16.32 0 0 Z " fill="#E3E3E3" transform="translate(534,186)"/>
<path d="M0 0 C0.80630859 0.00515625 1.61261719 0.0103125 2.44335938 0.015625 C5.88556064 0.06140656 8.51558575 0.15102858 11.8125 1.25 C11.8125 1.91 11.8125 2.57 11.8125 3.25 C12.70388672 3.35054687 12.70388672 3.35054687 13.61328125 3.453125 C16.689068 4.56761967 17.38748661 6.19779164 19 9 C19.50917969 9.86109375 20.01835937 10.7221875 20.54296875 11.609375 C24.24218987 19.30375493 23.4934608 27.97391724 20.84765625 35.88671875 C18.82552707 40.50327782 16.19960527 44.04569464 11.64453125 46.34375 C9.73415522 47.07408845 7.7751529 47.67473967 5.8125 48.25 C6.75222656 48.34087891 6.75222656 48.34087891 7.7109375 48.43359375 C8.52820313 48.51738281 9.34546875 48.60117188 10.1875 48.6875 C10.99960938 48.76871094 11.81171875 48.84992188 12.6484375 48.93359375 C14.8125 49.25 14.8125 49.25 16.8125 50.25 C17.4453125 52.31640625 17.4453125 52.31640625 17.9375 54.8125 C18.10507812 55.63878906 18.27265625 56.46507812 18.4453125 57.31640625 C18.56648438 57.95449219 18.68765625 58.59257812 18.8125 59.25 C13.21432937 61.11605688 7.83828302 61.03827484 2.4375 58.5625 C-0.8954803 56.69682776 -2.67613711 54.83948686 -4.1875 51.25 C-4.1875 50.59 -4.1875 49.93 -4.1875 49.25 C-5.07501953 49.01216797 -5.07501953 49.01216797 -5.98046875 48.76953125 C-12.45804067 46.85690398 -15.96759327 44.45653194 -19.875 38.8125 C-23.68679856 31.3704171 -24.61700674 23.57749161 -22.4296875 15.42578125 C-20.26354708 9.72047439 -17.92162146 4.9739575 -12.62890625 1.63671875 C-8.25716122 -0.12488112 -4.65669521 -0.12085503 0 0 Z M-9.1875 12.25 C-10.95990218 16.52970283 -11.45928235 20.20008835 -11.4375 24.8125 C-11.44265625 25.90691406 -11.4478125 27.00132812 -11.453125 28.12890625 C-11.184968 31.27975104 -10.6345252 33.449784 -9.1875 36.25 C-4.86443969 39.41321486 -1.35339625 39.61506155 3.7578125 38.83203125 C6.67523459 38.00561321 8.08051477 36.70364574 9.8125 34.25 C11.00917203 30.65998391 11.01788881 27.6595161 11.0625 23.875 C11.08828125 22.56789062 11.1140625 21.26078125 11.140625 19.9140625 C10.79827466 16.09115037 10.13384156 14.25769976 7.8125 11.25 C2.2500657 8.00524666 -4.23184436 8.00229516 -9.1875 12.25 Z " fill="#E1E1E1" transform="translate(243.1875,185.75)"/>
<path d="M0 0 C6.496875 -0.12375 6.496875 -0.12375 13.125 -0.25 C15.15744873 -0.30462402 15.15744873 -0.30462402 17.23095703 -0.36035156 C27.17557119 -0.45222551 27.17557119 -0.45222551 30.7734375 1.71484375 C34.35946783 5.3952433 34.77634719 8.98709214 35 14 C34.27208024 18.16899499 33.57217769 21.46970747 30 24 C29.34 24 28.68 24 28 24 C28.32613281 24.46148437 28.65226562 24.92296875 28.98828125 25.3984375 C33.66962912 32.38593609 35.90466743 39.67547244 37 48 C33.37 48 29.74 48 26 48 C23.65722418 42.75664459 21.75806795 37.46483773 20 32 C19.67 31.01 19.34 30.02 19 29 C16.36 29 13.72 29 11 29 C11 35.27 11 41.54 11 48 C7.37 48 3.74 48 0 48 C0 32.16 0 16.32 0 0 Z M11 9 C11 12.63 11 16.26 11 20 C12.423125 20.020625 13.84625 20.04125 15.3125 20.0625 C16.11300781 20.07410156 16.91351563 20.08570313 17.73828125 20.09765625 C20.16861334 20.09657855 20.16861334 20.09657855 23 19 C23.76522801 15.64541845 23.76522801 15.64541845 24 12 C22.9183906 10.16778211 22.9183906 10.16778211 21 9 C18.48710325 8.63786432 18.48710325 8.63786432 15.8125 8.8125 C14.224375 8.874375 12.63625 8.93625 11 9 Z " fill="#E6E6E6" transform="translate(319,186)"/>
<path d="M0 0 C4.62 0 9.24 0 14 0 C14.93965167 2.47836929 15.8767519 4.95765692 16.8125 7.4375 C17.07353516 8.12521484 17.33457031 8.81292969 17.60351562 9.52148438 C19.23622338 13.85521483 20.76427152 18.2112898 22.2121582 22.61010742 C23.06988832 25.21200396 23.94602253 27.80728656 24.82421875 30.40234375 C25.44533571 32.24738802 26.06642926 34.09244017 26.6875 35.9375 C27.00783203 36.88173828 27.32816406 37.82597656 27.65820312 38.79882812 C27.96048828 39.69923828 28.26277344 40.59964844 28.57421875 41.52734375 C28.84838623 42.33937256 29.12255371 43.15140137 29.4050293 43.98803711 C30 46 30 46 30 48 C26.37 48 22.74 48 19 48 C17.22742965 44.60899585 15.93411993 41.7364797 15 38 C9.72 37.67 4.44 37.34 -1 37 C-1.99 40.63 -2.98 44.26 -4 48 C-7.96 48 -11.92 48 -16 48 C-14.57596976 40.87984878 -12.4933397 34.0920322 -9.87890625 27.31640625 C-8.73004608 24.28852145 -7.64814814 21.23860287 -6.5625 18.1875 C-4.4008896 12.11533987 -2.2092496 6.05498038 0 0 Z M6 12 C5.71125 13.155 5.4225 14.31 5.125 15.5 C4.08333333 19.66666667 3.04166667 23.83333333 2 28 C5.3 28 8.6 28 12 28 C11.38304511 25.7058862 10.75687956 23.41500322 10.125 21.125 C9.95097656 20.47402344 9.77695312 19.82304687 9.59765625 19.15234375 C8.50470421 15.1931563 8.50470421 15.1931563 6 12 Z " fill="#E6E6E6" transform="translate(284,186)"/>
<path d="M0 0 C4.96622349 -0.02465098 9.93241166 -0.04283649 14.89868164 -0.05493164 C16.58944316 -0.0599719 18.28020029 -0.06680405 19.97094727 -0.07543945 C22.39600707 -0.08751857 24.82100944 -0.09323123 27.24609375 -0.09765625 C28.38672523 -0.10539818 28.38672523 -0.10539818 29.55039978 -0.11329651 C31.3673257 -0.11349238 33.18413127 -0.06197277 35 0 C36.81649754 1.81649754 36.5625 4.17335355 36.5625 6.59765625 C35.38547334 11.62454093 31.32740119 15.21534494 28 19 C27.67 19.66 27.34 20.32 27 21 C26.34 21 25.68 21 25 21 C24.77570313 21.52078125 24.55140625 22.0415625 24.3203125 22.578125 C22.50556274 25.90695593 20.21057756 28.7728295 17.875 31.75 C15.461875 34.84375 15.461875 34.84375 13 38 C20.26 38.33 27.52 38.66 35 39 C35 41.64 35 44.28 35 47 C23.45 47 11.9 47 0 47 C0 35.79787234 0 35.79787234 3.75 31.875 C4.55824219 30.97910156 5.36648438 30.08320313 6.19921875 29.16015625 C6.64442871 28.67047363 7.08963867 28.18079102 7.54833984 27.67626953 C10.4100871 24.37173596 12.96348301 20.82450228 15.5625 17.3125 C17.356875 14.899375 19.15125 12.48625 21 10 C14.07 9.67 7.14 9.34 0 9 C0 6.03 0 3.06 0 0 Z " fill="#ECECEC" transform="translate(359,186)"/>
<path d="M0 0 C2.31 0.66 4.62 1.32 7 2 C7 3.65 7 5.3 7 7 C8.299375 6.6596875 8.299375 6.6596875 9.625 6.3125 C13.72327596 5.93303 15.44423638 7.06751977 19 9 C20.32 9 21.64 9 23 9 C22.67 8.34 22.34 7.68 22 7 C22.33 6.34 22.66 5.68 23 5 C24.65 5.66 26.3 6.32 28 7 C21.79937792 13.20062208 21.79937792 13.20062208 17.3125 13.375 C13.54087599 13.3533551 11.32275139 13.02844238 8.375 10.625 C6 8 6 8 6 6 C5.34 6 4.68 6 4 6 C4 5.34 4 4.68 4 4 C3.34 4 2.68 4 2 4 C1.34 2.68 0.68 1.36 0 0 Z " fill="#3BECF9" transform="translate(86,307)"/>
<path d="M0 0 C0.33 0 0.66 0 1 0 C1.00808685 0.99922989 1.01617371 1.99845978 1.02450562 3.02796936 C1.10209396 12.45894904 1.18986511 21.8897867 1.28752708 31.32058048 C1.33740723 36.16868813 1.38373791 41.01677486 1.421875 45.86499023 C1.45883252 50.54647637 1.50522069 55.22778392 1.55806351 59.90911674 C1.57655192 61.69238581 1.59168024 63.47569309 1.60334396 65.25901985 C1.62030178 67.76278983 1.64935908 70.26615576 1.68115234 72.76977539 C1.68331253 73.50201828 1.68547272 74.23426117 1.68769836 74.98869324 C1.76387074 79.70478373 2.5434058 83.56275098 4 88 C3.01 88 2.02 88 1 88 C-0.25048455 84.24854634 -0.13143947 80.76323916 -0.11352539 76.85668945 C-0.11367142 76.02719788 -0.11381744 75.1977063 -0.1139679 74.34307861 C-0.11327092 71.59978628 -0.10548853 68.85656173 -0.09765625 66.11328125 C-0.09579131 64.21184832 -0.09436776 62.31041491 -0.09336853 60.40898132 C-0.08954936 55.40305252 -0.07972416 50.3971527 -0.06866455 45.39123535 C-0.05843756 40.28361402 -0.05386815 35.175988 -0.04882812 30.06835938 C-0.03810138 20.04556018 -0.02103212 10.0227825 0 0 Z " fill="#2A3996" transform="translate(110,122)"/>
<path d="M0 0 C0.9075 0.0825 1.815 0.165 2.75 0.25 C-0.27001031 5.53501805 -3.86481004 9.2997646 -9.25 12.25 C-13.80912218 13.03605555 -15.62331328 12.59182912 -19.6875 10.375 C-20.533125 9.67375 -21.37875 8.9725 -22.25 8.25 C-22.25 7.59 -22.25 6.93 -22.25 6.25 C-22.91 5.92 -23.57 5.59 -24.25 5.25 C-22.93 5.25 -21.61 5.25 -20.25 5.25 C-20.25 6.24 -20.25 7.23 -20.25 8.25 C-16.29 8.58 -12.33 8.91 -8.25 9.25 C-8.25 8.59 -8.25 7.93 -8.25 7.25 C-7.59 7.25 -6.93 7.25 -6.25 7.25 C-5.92 6.59 -5.59 5.93 -5.25 5.25 C-5.91 4.92 -6.57 4.59 -7.25 4.25 C-4.83923194 1.28290085 -3.90322061 0.30024774 0 0 Z " fill="#33439B" transform="translate(57.25,243.75)"/>
<path d="M0 0 C2 2 2 2 2 5 C1.34 5 0.68 5 0 5 C-0.12375 5.78375 -0.2475 6.5675 -0.375 7.375 C-1 10 -1 10 -3 12 C-4.32 12 -5.64 12 -7 12 C-7.99 13.485 -7.99 13.485 -9 15 C-10.32 14.34 -11.64 13.68 -13 13 C-9.0580583 8.11950075 -4.88049925 3.9419417 0 0 Z " fill="#3A50C9" transform="translate(28,176)"/>
<path d="M0 0 C8.43884892 7.11510791 8.43884892 7.11510791 12 11 C12 11.66 12 12.32 12 13 C12.66 13.33 13.32 13.66 14 14 C12.68 14 11.36 14 10 14 C10 13.34 10 12.68 10 12 C8.68 12.33 7.36 12.66 6 13 C6 12.34 6 11.68 6 11 C5.401875 11.20625 4.80375 11.4125 4.1875 11.625 C2 12 2 12 -1 10 C-0.67 6.7 -0.34 3.4 0 0 Z " fill="#2FD8E4" transform="translate(122,243)"/>
<path d="M0 0 C0.66 0 1.32 0 2 0 C2.33 1.98 2.66 3.96 3 6 C2.360625 6.268125 1.72125 6.53625 1.0625 6.8125 C-1.33131686 7.88667752 -1.33131686 7.88667752 -2 11 C-2.66 11 -3.32 11 -4 11 C-4.66 12.32 -5.32 13.64 -6 15 C-7.26026798 12.47946405 -6.91874445 11.1457902 -6.5625 8.375 C-6.46066406 7.55773437 -6.35882813 6.74046875 -6.25390625 5.8984375 C-6.17011719 5.27195313 -6.08632812 4.64546875 -6 4 C-4.02 3.34 -2.04 2.68 0 2 C0 1.34 0 0.68 0 0 Z " fill="#374AC6" transform="translate(186,228)"/>
<path d="M0 0 C1.375 1.8125 1.375 1.8125 2 4 C1.625 6.25 1.625 6.25 1 8 C-0.66666667 8 -2.33333333 8 -4 8 C-4 7.34 -4 6.68 -4 6 C-4.66 6 -5.32 6 -6 6 C-6 4.68 -6 3.36 -6 2 C-6.99 1.67 -7.98 1.34 -9 1 C-5.69708067 -1.07961587 -3.69218461 -1.36027854 0 0 Z " fill="#3E51D3" transform="translate(93,118)"/>
<path d="M0 0 C0 2.62113708 -0.31292445 4.50935112 -1 7 C-2.32 7.33 -3.64 7.66 -5 8 C-5.33 9.32 -5.66 10.64 -6 12 C-6.928125 12.12375 -6.928125 12.12375 -7.875 12.25 C-10.18437567 12.81258459 -10.18437567 12.81258459 -11.25 15.0625 C-11.4975 15.701875 -11.745 16.34125 -12 17 C-13.32 16.67 -14.64 16.34 -16 16 C-10.72 10.72 -5.44 5.44 0 0 Z " fill="#323F9F" transform="translate(83,120)"/>
<path d="M0 0 C0.66 0.33 1.32 0.66 2 1 C1 3 1 3 0 4 C1.65 4.33 3.3 4.66 5 5 C5 4.34 5 3.68 5 3 C5.99 3 6.98 3 8 3 C7.34 4.32 6.68 5.64 6 7 C-1.21712538 7.48929664 -1.21712538 7.48929664 -5 5.125 C-7 3 -7 3 -7 1 C-5.824375 1.309375 -5.824375 1.309375 -4.625 1.625 C-3.75875 1.74875 -2.8925 1.8725 -2 2 C-1.34 1.34 -0.68 0.68 0 0 Z " fill="#3243A1" transform="translate(160,250)"/>
<path d="M0 0 C0.12761719 0.55300781 0.25523438 1.10601562 0.38671875 1.67578125 C1.06414096 4.24308199 1.88940683 6.6977228 2.8125 9.1875 C3.28623047 10.50814453 3.28623047 10.50814453 3.76953125 11.85546875 C4.78294491 14.19339301 4.78294491 14.19339301 7.05859375 14.609375 C7.69925781 14.73828125 8.33992188 14.8671875 9 15 C10.25 18.0625 10.25 18.0625 11 21 C6.15047408 19.38349136 3.34201302 15.80783819 0.6875 11.5625 C-1.03108438 7.93437741 -1.45833262 5.9416605 -1 2 C-0.67 1.34 -0.34 0.68 0 0 Z " fill="#31A9AE" transform="translate(58,269)"/>
<path d="M0 0 C0.33 0.66 0.66 1.32 1 2 C-0.25 4.375 -0.25 4.375 -2 7 C-2.4125 7.721875 -2.825 8.44375 -3.25 9.1875 C-5.78083027 11.80871706 -8.51543172 12.21104114 -12 13 C-10.67342064 9.41823572 -8.48593042 7.57740325 -5.53125 5.23828125 C-3.54231655 3.62988354 -1.77268432 1.84086449 0 0 Z " fill="#303D9D" transform="translate(41,163)"/>
<path d="M0 0 C4.06354613 2.75710332 6.99641896 5.4722997 9 10 C6.83125748 9.49396008 5.00032373 9.00016187 3 8 C2.67 7.01 2.34 6.02 2 5 C1.34 4.67 0.68 4.34 0 4 C0 3.34 0 2.68 0 2 C-5.08303686 1.88679144 -5.08303686 1.88679144 -10 3 C-10 2.34 -10 1.68 -10 1 C-6.38638266 -1.3627498 -4.08501782 -1.28157422 0 0 Z " fill="#2D388A" transform="translate(121,118)"/>
<path d="M0 0 C1.32 0.33 2.64 0.66 4 1 C0.7 4.3 -2.6 7.6 -6 11 C-6.66 9.68 -7.32 8.36 -8 7 C-6.76446724 5.79745476 -5.51097661 4.61333768 -4.25 3.4375 C-3.55390625 2.77621094 -2.8578125 2.11492187 -2.140625 1.43359375 C-1.43421875 0.96050781 -0.7278125 0.48742187 0 0 Z " fill="#2EB7BD" transform="translate(125,299)"/>
<path d="M0 0 C1.32 0.33 2.64 0.66 4 1 C2.625 3 2.625 3 1 5 C0.34 5 -0.32 5 -1 5 C-1.33 5.99 -1.66 6.98 -2 8 C-2.66 8 -3.32 8 -4 8 C-4.33 8.99 -4.66 9.98 -5 11 C-5.93423645 7.98968256 -6.04449911 7.13349732 -5 4 C-3.35 3.67 -1.7 3.34 0 3 C0 2.01 0 1.02 0 0 Z " fill="#2C398E" transform="translate(200,217)"/>
<path d="M0 0 C1.32 0.33 2.64 0.66 4 1 C3.01 2.485 3.01 2.485 2 4 C1.34 4 0.68 4 0 4 C-0.28875 4.639375 -0.5775 5.27875 -0.875 5.9375 C-2 8 -2 8 -4 9 C-3.67 6.69 -3.34 4.38 -3 2 C-2.01 2 -1.02 2 0 2 C0 1.34 0 0.68 0 0 Z " fill="#2C3A95" transform="translate(175,242)"/>
<path d="M0 0 C0.9075 0.103125 1.815 0.20625 2.75 0.3125 C0.77 3.2825 0.77 3.2825 -1.25 6.3125 C-4.22 5.8175 -4.22 5.8175 -7.25 5.3125 C-4.05 0.38942308 -4.05 0.38942308 0 0 Z " fill="#3348AF" transform="translate(57.25,243.6875)"/>
<path d="M0 0 C3 2 3 2 3.58203125 4.0234375 C3.65808594 4.79945313 3.73414063 5.57546875 3.8125 6.375 C3.90144531 7.14585937 3.99039063 7.91671875 4.08203125 8.7109375 C3.9893116 11.29825726 3.3060765 12.79126831 2 15 C1.67 15 1.34 15 1 15 C1.020625 13.824375 1.04125 12.64875 1.0625 11.4375 C1.06947261 7.52586533 0.64250343 3.85502056 0 0 Z " fill="#33409B" transform="translate(203,202)"/>
<path d="M0 0 C3.125 -0.1875 3.125 -0.1875 6 0 C5.67 0.66 5.34 1.32 5 2 C4.34 2 3.68 2 3 2 C2.9175 2.61875 2.835 3.2375 2.75 3.875 C2 6 2 6 -0.0625 7.25 C-1.0215625 7.62125 -1.0215625 7.62125 -2 8 C-2.20086443 4.28400809 -2.1519437 3.22791555 0 0 Z " fill="#2E43A4" transform="translate(68,230)"/>
<path d="M0 0 C4.00754167 1.33584722 5.37476236 3.76893828 8 7 C8.66 7.33 9.32 7.66 10 8 C9.67 8.66 9.34 9.32 9 10 C7.02 9.34 5.04 8.68 3 8 C3 7.01 3 6.02 3 5 C2.01 4.67 1.02 4.34 0 4 C0 2.68 0 1.36 0 0 Z " fill="#2F4099" transform="translate(189,188)"/>
<path d="M0 0 C7.57142857 2.85714286 7.57142857 2.85714286 10 7 C8.68 7.33 7.36 7.66 6 8 C5.7525 7.38125 5.505 6.7625 5.25 6.125 C3.79371361 3.64931313 2.62187494 3.04874998 0 2 C0 1.34 0 0.68 0 0 Z " fill="#2BB0B4" transform="translate(70,291)"/>
<path d="M0 0 C0.33 0.99 0.66 1.98 1 3 C1.66 3.33 2.32 3.66 3 4 C0.03 6.475 0.03 6.475 -3 9 C-3.75 6.75 -3.75 6.75 -4 4 C-2.0625 1.6875 -2.0625 1.6875 0 0 Z " fill="#2DC8CC" transform="translate(142,280)"/>
<path d="M0 0 C1 2 1 2 0.25 4.5 C-1 7 -1 7 -4 9 C-4.99 9 -5.98 9 -7 9 C-5.44499019 5.18315774 -2.96404505 2.80804268 0 0 Z " fill="#3442A7" transform="translate(14,190)"/>
<path d="M0 0 C0 0.99 0 1.98 0 3 C-0.33 2.34 -0.66 1.68 -1 1 C-1.99 1.495 -1.99 1.495 -3 2 C-3.65213292 4.02463255 -3.65213292 4.02463255 -4 6 C-4.66 6 -5.32 6 -6 6 C-6 4.68 -6 3.36 -6 2 C-6.99 1.67 -7.98 1.34 -9 1 C-5.64919071 -1.10976881 -3.77897651 -1.0497157 0 0 Z " fill="#2F40A3" transform="translate(93,118)"/>
<path d="M0 0 C2.31 0.66 4.62 1.32 7 2 C7.12375 2.804375 7.2475 3.60875 7.375 4.4375 C7.684375 5.7059375 7.684375 5.7059375 8 7 C8.66 7.33 9.32 7.66 10 8 C7 8 7 8 5.17578125 6.50390625 C4.56089844 5.86324219 3.94601563 5.22257813 3.3125 4.5625 C2.68988281 3.92441406 2.06726563 3.28632813 1.42578125 2.62890625 C0 1 0 1 0 0 Z " fill="#3045A1" transform="translate(142,240)"/>
<path d="M0 0 C0 3.49889647 -0.54120332 4.0553603 -2.75 6.625 C-3.26046875 7.23601562 -3.7709375 7.84703125 -4.296875 8.4765625 C-6.19607419 10.17538747 -7.51275949 10.5998787 -10 11 C-8.55218207 7.55571735 -6.72305391 5.63869038 -3.875 3.25 C-3.15054687 2.63640625 -2.42609375 2.0228125 -1.6796875 1.390625 C-0.84824219 0.70226562 -0.84824219 0.70226562 0 0 Z " fill="#2A368D" transform="translate(25,179)"/>
<path d="M0 0 C2.31 0.66 4.62 1.32 7 2 C7 3.65 7 5.3 7 7 C7.66 7 8.32 7 9 7 C9 7.66 9 8.32 9 9 C8.01 8.67 7.02 8.34 6 8 C6 7.34 6 6.68 6 6 C5.34 6 4.68 6 4 6 C4 5.34 4 4.68 4 4 C3.34 4 2.68 4 2 4 C1.34 2.68 0.68 1.36 0 0 Z " fill="#2BA4A9" transform="translate(86,307)"/>
<path d="M0 0 C1.98 0.66 3.96 1.32 6 2 C4.35 3.98 2.7 5.96 1 8 C0.67 7.01 0.34 6.02 0 5 C-0.66 4.67 -1.32 4.34 -2 4 C-1.34 4 -0.68 4 0 4 C0 2.68 0 1.36 0 0 Z " fill="#31C5CC" transform="translate(131,289)"/>
<path d="M0 0 C0.66 0 1.32 0 2 0 C1.67 1.98 1.34 3.96 1 6 C-0.98 6.33 -2.96 6.66 -5 7 C-4.67 6.01 -4.34 5.02 -4 4 C-3.34 4 -2.68 4 -2 4 C-1.34 2.68 -0.68 1.36 0 0 Z " fill="#3343A4" transform="translate(5,199)"/>
<path d="M0 0 C0 0.99 0 1.98 0 3 C-0.66 3 -1.32 3 -2 3 C-2.33 4.65 -2.66 6.3 -3 8 C-4.98 8.66 -6.96 9.32 -9 10 C-7.61811547 6.78956118 -6.07578097 4.95063635 -3.375 2.75 C-2.74335937 2.22921875 -2.11171875 1.7084375 -1.4609375 1.171875 C-0.73777344 0.59179688 -0.73777344 0.59179688 0 0 Z " fill="#279EA4" transform="translate(87,239)"/>
<path d="M0 0 C3.0831351 1.19899698 6.06279492 2.47700477 9 4 C9 5.65 9 7.3 9 9 C7 9 7 9 5.2734375 7.28515625 C4.64695312 6.55167969 4.02046875 5.81820312 3.375 5.0625 C2.74335938 4.33160156 2.11171875 3.60070312 1.4609375 2.84765625 C0 1 0 1 0 0 Z " fill="#34419A" transform="translate(15,230)"/>
<path d="M0 0 C1.14926266 0.95421808 2.29430541 1.91352045 3.4375 2.875 C4.07558594 3.40867188 4.71367187 3.94234375 5.37109375 4.4921875 C7 6 7 6 8 8 C5.69 7.67 3.38 7.34 1 7 C1.66 6.67 2.32 6.34 3 6 C3 5.34 3 4.68 3 4 C2.01 3.67 1.02 3.34 0 3 C0 2.01 0 1.02 0 0 Z " fill="#2C3D99" transform="translate(145,143)"/>
<path d="M0 0 C1.14926266 0.95421808 2.29430541 1.91352045 3.4375 2.875 C4.07558594 3.40867188 4.71367187 3.94234375 5.37109375 4.4921875 C7 6 7 6 8 8 C6.35 8 4.7 8 3 8 C3 7.34 3 6.68 3 6 C2.34 6 1.68 6 1 6 C0.67 4.02 0.34 2.04 0 0 Z " fill="#2D3E99" transform="translate(137,135)"/>
<path d="M0 0 C0.66 0 1.32 0 2 0 C1.69611836 2.93752254 1.19330344 3.84080893 -1.125 5.75 C-4.59278683 7.2577334 -7.25670998 7.22019353 -11 7 C-11 6.67 -11 6.34 -11 6 C-8.36 5.67 -5.72 5.34 -3 5 C-3 4.01 -3 3.02 -3 2 C-2.34 2 -1.68 2 -1 2 C-0.67 1.34 -0.34 0.68 0 0 Z " fill="#23317E" transform="translate(52,249)"/>
<path d="M0 0 C3.57410797 2.68058098 6.31941902 5.42589203 9 9 C6.03 8.505 6.03 8.505 3 8 C3 6.68 3 5.36 3 4 C2.01 4 1.02 4 0 4 C0 2.68 0 1.36 0 0 Z " fill="#31409E" transform="translate(167,165)"/>
<path d="M0 0 C2.475 0.99 2.475 0.99 5 2 C3.35 3.65 1.7 5.3 0 7 C-1.32 6.34 -2.64 5.68 -4 5 C-2.68 4.67 -1.36 4.34 0 4 C-0.33 3.34 -0.66 2.68 -1 2 C-0.67 1.34 -0.34 0.68 0 0 Z " fill="#2BC0CA" transform="translate(109,312)"/>
<path d="M0 0 C4.29 0.99 8.58 1.98 13 3 C13 3.33 13 3.66 13 4 C11.3973218 4.10824843 9.79254252 4.18570645 8.1875 4.25 C7.29417969 4.29640625 6.40085937 4.3428125 5.48046875 4.390625 C3 4 3 4 0 0 Z " fill="#2B8E97" transform="translate(95,316)"/>
<path d="M0 0 C1.98 1.65 3.96 3.3 6 5 C5.67 5.66 5.34 6.32 5 7 C3.02 6.34 1.04 5.68 -1 5 C-0.34 4.67 0.32 4.34 1 4 C0.67 2.68 0.34 1.36 0 0 Z " fill="#29BBC1" transform="translate(136,257)"/>
<path d="M0 0 C1.2065625 0.0309375 1.2065625 0.0309375 2.4375 0.0625 C2.1075 0.7225 1.7775 1.3825 1.4375 2.0625 C0.7775 2.0625 0.1175 2.0625 -0.5625 2.0625 C-0.8925 3.0525 -1.2225 4.0425 -1.5625 5.0625 C-3.625 6.75 -3.625 6.75 -5.5625 8.0625 C-5.5625 6.7425 -5.5625 5.4225 -5.5625 4.0625 C-4.5725 4.0625 -3.5825 4.0625 -2.5625 4.0625 C-2.8925 3.0725 -3.2225 2.0825 -3.5625 1.0625 C-2.5625 0.0625 -2.5625 0.0625 0 0 Z " fill="#273688" transform="translate(88.5625,212.9375)"/>
<path d="M0 0 C0.598125 0.350625 1.19625 0.70125 1.8125 1.0625 C0.8225 1.5575 0.8225 1.5575 -0.1875 2.0625 C-0.1875 2.7225 -0.1875 3.3825 -0.1875 4.0625 C-2.125 3.75 -2.125 3.75 -4.1875 3.0625 C-4.5175 2.0725 -4.8475 1.0825 -5.1875 0.0625 C-2.1875 -0.9375 -2.1875 -0.9375 0 0 Z " fill="#37E5EE" transform="translate(73.1875,287.9375)"/>
<path d="M0 0 C1.32 0 2.64 0 4 0 C3.67 0.99 3.34 1.98 3 3 C2.34 3 1.68 3 1 3 C0.34 4.32 -0.32 5.64 -1 7 C-1.33 6.34 -1.66 5.68 -2 5 C-1.0625 2.375 -1.0625 2.375 0 0 Z " fill="#283490" transform="translate(181,236)"/>
<path d="M0 0 C0.33 1.32 0.66 2.64 1 4 C-2.75 7 -2.75 7 -5 7 C-3.70700306 4.11562221 -2.34058637 2.12780579 0 0 Z " fill="#2B3688" transform="translate(60,143)"/>
<path d="M0 0 C0.66 0.33 1.32 0.66 2 1 C1.01 2.98 0.02 4.96 -1 7 C-1.99 6.67 -2.98 6.34 -4 6 C-4 6.66 -4 7.32 -4 8 C-4.66 7.67 -5.32 7.34 -6 7 C-4.02 4.69 -2.04 2.38 0 0 Z " fill="#2694A1" transform="translate(71,254)"/>
<path d="M0 0 C2.31 1.98 4.62 3.96 7 6 C4.50907189 7.24546405 3.58919267 6.7767578 1 6 C0.67 4.02 0.34 2.04 0 0 Z " fill="#2AAEB2" transform="translate(122,243)"/>
<path d="M0 0 C0.66 0.33 1.32 0.66 2 1 C1.34 2.32 0.68 3.64 0 5 C-0.66 5 -1.32 5 -2 5 C-2 5.66 -2 6.32 -2 7 C-2.99 7 -3.98 7 -5 7 C-4.67 6.01 -4.34 5.02 -4 4 C-3.34 4 -2.68 4 -2 4 C-1.34 2.68 -0.68 1.36 0 0 Z " fill="#2B358A" transform="translate(53,150)"/>
<path d="M0 0 C0.33 1.32 0.66 2.64 1 4 C-1.375 5.5625 -1.375 5.5625 -4 7 C-4.66 6.67 -5.32 6.34 -6 6 C-4 4 -2 2 0 0 Z " fill="#279CA4" transform="translate(94,232)"/>
</svg>
